# xmcd
#
# Track frame offsets:
#	150
#	30770
#	55836
#	152731
#	179306
#	235584
#	270945
#	307395
#
# Disc length: 4373 seconds
#
# Revision: 1
# Processed by: cddbd v1.4PL0 Copyright (c) Steve Scherf et al.
# Submitted via: audiograbber 1.80.04
#
DISCID=59111308
DTITLE=grateful dead - 5-28-77 hartford disc 1
DYEAR=1900
DGENRE=
TTITLE0=bertha
TTITLE1=good lovin
TTITLE2=sugaree
TTITLE3=jack straw
TTITLE4=row jimmy
TTITLE5=new minglewood blues
TTITLE6=candyman
TTITLE7=passenger
EXTD=
EXTT0=
EXTT1=
EXTT2=
EXTT3=
EXTT4=
EXTT5=
EXTT6=
EXTT7=
PLAYORDER=
